<svg width="1327" height="1319" viewBox="0 0 1327 1319" fill="none" xmlns="http://www.w3.org/2000/svg">
<rect width="1327" height="1319" fill="#7F7F7F"/>
<rect width="1327" height="1319" fill="#141823"/>
<g clip-path="url(#clip0_0_1)">
<path d="M661.64 228C462.39 228 300.87 380.3 300.87 568.17C300.87 756.04 462.39 908.34 661.64 908.34C860.89 908.34 1022.42 756.04 1022.42 568.17C1022.42 380.3 860.89 228 661.64 228ZM661.64 869.99C484.87 869.99 341.56 734.86 341.56 568.17C341.56 401.48 484.86 266.37 661.64 266.37C838.42 266.37 981.73 401.49 981.73 568.17C981.73 734.85 838.42 869.99 661.64 869.99Z" fill="url(#paint0_linear_0_1)"/>
<path d="M840.42 401.99C789.03 409.1 729.85 414.15 664.28 414.28C596.65 414.41 535.76 409.27 483.11 401.99C481.97 401.99 475.89 401.88 470.98 396.97C467.88 393.87 465.96 389.58 465.96 384.84V361.3C524.49 367.91 590.13 372.32 661.76 372.32C720.67 372.32 786.39 369.34 857.56 361.3V384.83C857.56 394.3 849.88 401.98 840.41 401.98L840.42 401.99Z" fill="url(#paint1_linear_0_1)"/>
<path d="M891.46 537.19H833.37L843.56 624.92H779.99L773.91 537.19H549.87L543.61 627.56H480.03L490.53 537.19H431.5V501.58H494.66L499.02 464.11L500.69 449.74L501.64 441.51L556.32 444.05L556.09 447.46L554.69 467.62L552.34 501.58H631.12V438.86H691.41V501.58H771.44L767.27 441.4L821.95 438.86L829.23 501.58H891.46V537.19Z" fill="url(#paint2_linear_0_1)"/>
<path opacity="0.5" d="M556.09 448.05L554.7 468.21C548.28 469.88 540.25 470.86 531.53 470.86C517.79 470.86 505.73 468.39 499.02 464.7L500.69 450.33C507.62 447.11 518.85 445.01 531.53 445.01C540.89 445.01 549.46 446.16 556.09 448.05Z" fill="#3F16F4"/>
<path opacity="0.5" d="M691.41 447.67V467.54L691.36 468.2C684.33 469.87 675.54 470.85 665.99 470.85C651.41 470.85 638.59 468.55 631.12 465.05V458.92L632.22 450.32C639.81 447.1 652.11 445 666 445C675.57 445 684.38 446 691.42 447.66L691.41 447.67Z" fill="#3F16F4"/>
<path opacity="0.5" d="M767.84 448.05L769.23 468.21C775.65 469.88 783.68 470.86 792.4 470.86C806.14 470.86 818.2 468.39 824.91 464.7L823.24 450.33C816.31 447.11 805.08 445.01 792.4 445.01C783.04 445.01 774.47 446.16 767.84 448.05Z" fill="#3F16F4"/>
<path d="M874.93 451.2C808.9 457.11 736.88 460.84 659.63 460.89C584.48 460.94 514.3 457.5 449.79 451.96C443.7 433.32 437.61 414.69 431.51 396.05H459.38C462.51 399.7 465.64 403.35 468.77 407C470.11 408.56 471.94 409.6 473.96 409.96C490.64 412.9 511.69 416.21 536.11 419.08C586.62 425.03 631.23 426.72 667.74 426.62C701.14 426.53 741.95 424.89 788.21 419.65C812.65 416.88 833.71 413.67 850.38 410.81C852.09 410.52 853.68 409.72 854.94 408.53C859.34 404.37 863.75 400.21 868.15 396.06H894C887.64 414.44 881.29 432.83 874.93 451.21V451.2Z" fill="url(#paint3_linear_0_1)"/>
<path d="M370.69 703.87C381.53 695.91 399.23 685.08 423.31 679.44C431.17 677.6 437.16 676.91 442.8 676.28C477.36 672.42 505.01 677.93 513.69 679.84C521.27 681.51 545.91 687.36 571.69 701.8C626.73 732.63 653.22 783.68 662.75 804.77V932.87C629.63 918.67 586.79 904.1 535.59 895.65C449.54 881.44 376.89 890.59 329.4 900.72C343.16 835.11 356.93 769.49 370.69 703.88V703.87Z" fill="#3010E9"/>
<path d="M954.82 703.87C943.98 695.91 926.28 685.08 902.2 679.44C894.34 677.6 888.35 676.91 882.71 676.28C848.15 672.42 820.5 677.93 811.82 679.84C804.24 681.51 779.6 687.36 753.82 701.8C698.78 732.63 672.29 783.68 662.76 804.77V932.87C695.88 918.67 738.72 904.1 789.92 895.65C875.97 881.44 948.62 890.59 996.11 900.72C982.35 835.11 968.58 769.49 954.82 703.88V703.87Z" fill="url(#paint4_linear_0_1)"/>
<path d="M430.22 677.53C447.16 674.58 510.46 665.64 574.84 703.61C631.96 737.3 655.61 787.68 662.76 804.76V858.5C641.79 842.31 610.18 821.83 568.05 807.26C505.63 785.68 450.93 787.75 419.95 791.33C423.37 753.4 426.8 715.47 430.22 677.53Z" fill="url(#paint5_linear_0_1)"/>
<path d="M895.22 677.53C878.28 674.58 814.98 665.64 750.6 703.61C693.48 737.3 669.83 787.68 662.68 804.76V858.5C683.65 842.31 715.26 821.83 757.39 807.26C819.81 785.68 874.51 787.75 905.49 791.33C902.07 753.4 898.64 715.47 895.22 677.53Z" fill="url(#paint6_linear_0_1)"/>
<path d="M407.64 684.08L385.9 818.78C416.37 813.09 464.47 807.94 521.82 818.12C587.33 829.75 635.44 856.15 662.75 873.96V894.77C633.89 877.54 586.58 854.11 523.93 843.14C451.65 830.49 391.96 840.21 357.52 848.54C366.57 797.27 375.62 746 384.67 694.74L407.64 684.07V684.08Z" fill="#FEFEFE"/>
<path d="M917.86 684.08L939.6 818.78C909.13 813.09 861.03 807.94 803.68 818.12C738.17 829.75 690.06 856.15 662.75 873.96V894.77C691.61 877.54 738.92 854.11 801.57 843.14C873.85 830.49 933.54 840.21 967.98 848.54C958.93 797.27 949.88 746 940.83 694.74L917.86 684.07V684.08Z" fill="#FEFEFE"/>
<path d="M735.15 599.28V724.31H694.89L633.35 657.98V724.31H593.09V599.28H635.89L694.89 667.8V599.28H735.15Z" fill="#3C14EF"/>
<path d="M333.88 961.26V1087.77H303.36L238.51 1001.75V1087.77H208V961.26H238.51L303.36 1047.29V961.26H333.88Z" fill="#0E19E3"/>
<path d="M495.38 1027.99V1087.77H464.87V1035.27C464.87 1025.6 457.54 1017.22 447.88 1016.61C447.47 1016.58 447.06 1016.57 446.64 1016.57C440.51 1016.57 435.02 1019.41 431.45 1023.85C428.69 1027.28 427.36 1031.63 427.36 1036.03V1087.77H396.85V961.26H427.36C427.74 977.37 428.12 993.49 428.5 1009.6C432.39 1004.7 436.45 1001.92 439.15 1000.38C439.15 1000.38 448.35 995.15 462.22 995.25C463.54 995.26 464.87 995.34 464.87 995.34C465 995.34 465.14 995.36 465.27 995.36C482.29 996.49 495.38 1010.92 495.38 1027.98V1027.99Z" fill="#0E19E3"/>
<path d="M731.63 1027.99V1087.77H701.12V1035.27C701.12 1025.6 693.79 1017.22 684.13 1016.61C683.72 1016.58 683.31 1016.57 682.89 1016.57C676.76 1016.57 671.27 1019.41 667.7 1023.85C664.94 1027.28 663.61 1031.63 663.61 1036.03V1087.77H633.1V994.46H663.61C663.61 995.78 663.95 1005.71 663.95 1009.6C667.84 1004.7 672.7 1001.92 675.4 1000.38C675.4 1000.38 684.6 995.15 698.47 995.25C699.79 995.26 701.12 995.34 701.12 995.34C701.25 995.34 701.39 995.36 701.52 995.36C718.54 996.49 731.63 1010.92 731.63 1027.98V1027.99Z" fill="#0E19E3"/>
<path d="M380.61 1008.62H350.1V1087.77H380.61V1008.62Z" fill="#0E19E3"/>
<path d="M365.36 994.53C374.544 994.53 381.99 987.085 381.99 977.9C381.99 968.716 374.544 961.27 365.36 961.27C356.175 961.27 348.73 968.716 348.73 977.9C348.73 987.085 356.175 994.53 365.36 994.53Z" fill="#0E19E3"/>
<path d="M564.23 995.08C534.4 995.08 510.22 1016.42 510.22 1042.74C510.22 1069.06 534.4 1090.4 564.23 1090.4C594.06 1090.4 618.24 1069.06 618.24 1042.74C618.24 1016.42 594.06 995.08 564.23 995.08ZM564.23 1070.48C548.92 1070.48 536.49 1058.06 536.49 1042.74C536.49 1027.42 548.91 1015 564.23 1015C579.55 1015 591.97 1027.41 591.97 1042.74C591.97 1058.07 579.55 1070.48 564.23 1070.48Z" fill="#0E19E3"/>
<path d="M564.23 1091.02C534.11 1091.02 509.6 1069.36 509.6 1042.74C509.6 1016.12 534.11 994.46 564.23 994.46C594.35 994.46 618.86 1016.12 618.86 1042.74C618.86 1069.36 594.35 1091.02 564.23 1091.02ZM564.23 995.71C534.79 995.71 510.85 1016.81 510.85 1042.75C510.85 1068.69 534.8 1089.78 564.23 1089.78C593.66 1089.78 617.61 1068.68 617.61 1042.75C617.61 1016.82 593.66 995.71 564.23 995.71ZM564.23 1071.1C548.59 1071.1 535.87 1058.38 535.87 1042.74C535.87 1027.1 548.59 1014.38 564.23 1014.38C579.87 1014.38 592.59 1027.1 592.59 1042.74C592.59 1058.38 579.87 1071.1 564.23 1071.1ZM564.23 1015.63C549.28 1015.63 537.11 1027.79 537.11 1042.75C537.11 1057.71 549.27 1069.86 564.23 1069.86C579.19 1069.86 591.35 1057.7 591.35 1042.75C591.35 1027.8 579.19 1015.63 564.23 1015.63Z" fill="#0E19E3"/>
<path d="M943.37 995.08C913.54 995.08 889.36 1016.42 889.36 1042.74C889.36 1069.06 913.54 1090.4 943.37 1090.4C973.2 1090.4 997.38 1069.06 997.38 1042.74C997.38 1016.42 973.2 995.08 943.37 995.08ZM943.37 1070.48C928.06 1070.48 915.63 1058.06 915.63 1042.74C915.63 1027.42 928.05 1015 943.37 1015C958.69 1015 971.11 1027.41 971.11 1042.74C971.11 1058.07 958.69 1070.48 943.37 1070.48Z" fill="#0E19E3"/>
<path d="M943.37 1014.38C927.73 1014.38 915.01 1027.1 915.01 1042.74C915.01 1058.38 927.73 1071.1 943.37 1071.1C959.01 1071.1 971.73 1058.38 971.73 1042.74C971.73 1027.1 959.01 1014.38 943.37 1014.38ZM943.37 1069.86C928.42 1069.86 916.25 1057.7 916.25 1042.74C916.25 1027.78 928.41 1015.62 943.37 1015.62C958.33 1015.62 970.49 1027.78 970.49 1042.74C970.49 1057.7 958.33 1069.86 943.37 1069.86ZM943.37 1014.38C927.73 1014.38 915.01 1027.1 915.01 1042.74C915.01 1058.38 927.73 1071.1 943.37 1071.1C959.01 1071.1 971.73 1058.38 971.73 1042.74C971.73 1027.1 959.01 1014.38 943.37 1014.38ZM943.37 1069.86C928.42 1069.86 916.25 1057.7 916.25 1042.74C916.25 1027.78 928.41 1015.62 943.37 1015.62C958.33 1015.62 970.49 1027.78 970.49 1042.74C970.49 1057.7 958.33 1069.86 943.37 1069.86ZM943.37 1014.38C927.73 1014.38 915.01 1027.1 915.01 1042.74C915.01 1058.38 927.73 1071.1 943.37 1071.1C959.01 1071.1 971.73 1058.38 971.73 1042.74C971.73 1027.1 959.01 1014.38 943.37 1014.38ZM943.37 1069.86C928.42 1069.86 916.25 1057.7 916.25 1042.74C916.25 1027.78 928.41 1015.62 943.37 1015.62C958.33 1015.62 970.49 1027.78 970.49 1042.74C970.49 1057.7 958.33 1069.86 943.37 1069.86ZM943.37 1014.38C927.73 1014.38 915.01 1027.1 915.01 1042.74C915.01 1058.38 927.73 1071.1 943.37 1071.1C959.01 1071.1 971.73 1058.38 971.73 1042.74C971.73 1027.1 959.01 1014.38 943.37 1014.38ZM943.37 1069.86C928.42 1069.86 916.25 1057.7 916.25 1042.74C916.25 1027.78 928.41 1015.62 943.37 1015.62C958.33 1015.62 970.49 1027.78 970.49 1042.74C970.49 1057.7 958.33 1069.86 943.37 1069.86ZM943.37 994.46C913.25 994.46 888.74 1016.12 888.74 1042.74C888.74 1069.36 913.25 1091.02 943.37 1091.02C973.49 1091.02 998 1069.36 998 1042.74C998 1016.12 973.5 994.46 943.37 994.46ZM943.37 1089.78C913.94 1089.78 889.99 1068.68 889.99 1042.75C889.99 1016.82 913.94 995.72 943.37 995.72C972.8 995.72 996.75 1016.82 996.75 1042.75C996.75 1068.68 972.8 1089.78 943.37 1089.78ZM943.37 1014.38C927.73 1014.38 915.01 1027.1 915.01 1042.74C915.01 1058.38 927.73 1071.1 943.37 1071.1C959.01 1071.1 971.73 1058.38 971.73 1042.74C971.73 1027.1 959.01 1014.38 943.37 1014.38ZM943.37 1069.86C928.42 1069.86 916.25 1057.7 916.25 1042.74C916.25 1027.78 928.41 1015.62 943.37 1015.62C958.33 1015.62 970.49 1027.78 970.49 1042.74C970.49 1057.7 958.33 1069.86 943.37 1069.86ZM943.37 1014.38C927.73 1014.38 915.01 1027.1 915.01 1042.74C915.01 1058.38 927.73 1071.1 943.37 1071.1C959.01 1071.1 971.73 1058.38 971.73 1042.74C971.73 1027.1 959.01 1014.38 943.37 1014.38ZM943.37 1069.86C928.42 1069.86 916.25 1057.7 916.25 1042.74C916.25 1027.78 928.41 1015.62 943.37 1015.62C958.33 1015.62 970.49 1027.78 970.49 1042.74C970.49 1057.7 958.33 1069.86 943.37 1069.86ZM943.37 1014.38C927.73 1014.38 915.01 1027.1 915.01 1042.74C915.01 1058.38 927.73 1071.1 943.37 1071.1C959.01 1071.1 971.73 1058.38 971.73 1042.74C971.73 1027.1 959.01 1014.38 943.37 1014.38ZM943.37 1069.86C928.42 1069.86 916.25 1057.7 916.25 1042.74C916.25 1027.78 928.41 1015.62 943.37 1015.62C958.33 1015.62 970.49 1027.78 970.49 1042.74C970.49 1057.7 958.33 1069.86 943.37 1069.86Z" fill="#0E19E3"/>
<path d="M1066.24 995.08C1036.41 995.08 1012.23 1016.42 1012.23 1042.74C1012.23 1069.06 1036.41 1090.4 1066.24 1090.4C1096.07 1090.4 1120.25 1069.06 1120.25 1042.74C1120.25 1016.42 1096.07 995.08 1066.24 995.08ZM1066.24 1070.48C1050.93 1070.48 1038.5 1058.06 1038.5 1042.74C1038.5 1027.42 1050.92 1015 1066.24 1015C1081.56 1015 1093.98 1027.41 1093.98 1042.74C1093.98 1058.07 1081.56 1070.48 1066.24 1070.48Z" fill="#0E19E3"/>
<path d="M1066.24 1014.38C1050.6 1014.38 1037.88 1027.1 1037.88 1042.74C1037.88 1058.38 1050.6 1071.1 1066.24 1071.1C1081.88 1071.1 1094.6 1058.38 1094.6 1042.74C1094.6 1027.1 1081.88 1014.38 1066.24 1014.38ZM1066.24 1069.86C1051.29 1069.86 1039.12 1057.7 1039.12 1042.74C1039.12 1027.78 1051.28 1015.62 1066.24 1015.62C1081.2 1015.62 1093.36 1027.78 1093.36 1042.74C1093.36 1057.7 1081.2 1069.86 1066.24 1069.86ZM1066.24 1014.38C1050.6 1014.38 1037.88 1027.1 1037.88 1042.74C1037.88 1058.38 1050.6 1071.1 1066.24 1071.1C1081.88 1071.1 1094.6 1058.38 1094.6 1042.74C1094.6 1027.1 1081.88 1014.38 1066.24 1014.38ZM1066.24 1069.86C1051.29 1069.86 1039.12 1057.7 1039.12 1042.74C1039.12 1027.78 1051.28 1015.62 1066.24 1015.62C1081.2 1015.62 1093.36 1027.78 1093.36 1042.74C1093.36 1057.7 1081.2 1069.86 1066.24 1069.86ZM1066.24 1014.38C1050.6 1014.38 1037.88 1027.1 1037.88 1042.74C1037.88 1058.38 1050.6 1071.1 1066.24 1071.1C1081.88 1071.1 1094.6 1058.38 1094.6 1042.74C1094.6 1027.1 1081.88 1014.38 1066.24 1014.38ZM1066.24 1069.86C1051.29 1069.86 1039.12 1057.7 1039.12 1042.74C1039.12 1027.78 1051.28 1015.62 1066.24 1015.62C1081.2 1015.62 1093.36 1027.78 1093.36 1042.74C1093.36 1057.7 1081.2 1069.86 1066.24 1069.86ZM1066.24 1014.38C1050.6 1014.38 1037.88 1027.1 1037.88 1042.74C1037.88 1058.38 1050.6 1071.1 1066.24 1071.1C1081.88 1071.1 1094.6 1058.38 1094.6 1042.74C1094.6 1027.1 1081.88 1014.38 1066.24 1014.38ZM1066.24 1069.86C1051.29 1069.86 1039.12 1057.7 1039.12 1042.74C1039.12 1027.78 1051.28 1015.62 1066.24 1015.62C1081.2 1015.62 1093.36 1027.78 1093.36 1042.74C1093.36 1057.7 1081.2 1069.86 1066.24 1069.86ZM1066.24 994.46C1036.11 994.46 1011.61 1016.12 1011.61 1042.74C1011.61 1069.36 1036.11 1091.02 1066.24 1091.02C1096.37 1091.02 1120.87 1069.36 1120.87 1042.74C1120.87 1016.12 1096.36 994.46 1066.24 994.46ZM1066.24 1089.78C1036.8 1089.78 1012.86 1068.68 1012.86 1042.75C1012.86 1016.82 1036.8 995.72 1066.24 995.72C1095.68 995.72 1119.62 1016.82 1119.62 1042.75C1119.62 1068.68 1095.67 1089.78 1066.24 1089.78ZM1066.24 1014.38C1050.6 1014.38 1037.88 1027.1 1037.88 1042.74C1037.88 1058.38 1050.6 1071.1 1066.24 1071.1C1081.88 1071.1 1094.6 1058.38 1094.6 1042.74C1094.6 1027.1 1081.88 1014.38 1066.24 1014.38ZM1066.24 1069.86C1051.29 1069.86 1039.12 1057.7 1039.12 1042.74C1039.12 1027.78 1051.28 1015.62 1066.24 1015.62C1081.2 1015.62 1093.36 1027.78 1093.36 1042.74C1093.36 1057.7 1081.2 1069.86 1066.24 1069.86ZM1066.24 1014.38C1050.6 1014.38 1037.88 1027.1 1037.88 1042.74C1037.88 1058.38 1050.6 1071.1 1066.24 1071.1C1081.88 1071.1 1094.6 1058.38 1094.6 1042.74C1094.6 1027.1 1081.88 1014.38 1066.24 1014.38ZM1066.24 1069.86C1051.29 1069.86 1039.12 1057.7 1039.12 1042.74C1039.12 1027.78 1051.28 1015.62 1066.24 1015.62C1081.2 1015.62 1093.36 1027.78 1093.36 1042.74C1093.36 1057.7 1081.2 1069.86 1066.24 1069.86ZM1066.24 1014.38C1050.6 1014.38 1037.88 1027.1 1037.88 1042.74C1037.88 1058.38 1050.6 1071.1 1066.24 1071.1C1081.88 1071.1 1094.6 1058.38 1094.6 1042.74C1094.6 1027.1 1081.88 1014.38 1066.24 1014.38ZM1066.24 1069.86C1051.29 1069.86 1039.12 1057.7 1039.12 1042.74C1039.12 1027.78 1051.28 1015.62 1066.24 1015.62C1081.2 1015.62 1093.36 1027.78 1093.36 1042.74C1093.36 1057.7 1081.2 1069.86 1066.24 1069.86Z" fill="#0E19E3"/>
<path d="M874.52 1017.87V1073.26C869.02 1077.31 859.98 1082.93 847.68 1086.46C845.1 1087.19 834.3 1090.15 818.83 1089.5C803.92 1088.88 786.66 1088.16 771.07 1076.13C746.89 1057.46 746.46 1026.79 746.47 1024.53C746.47 1019.65 747.07 998.86 762.8 981.24C782.71 958.98 811.04 959.43 818.82 959.55C844.89 959.96 863.1 973.06 869.54 978.2C864.51 984.49 858.41 991.14 855.15 994.61C850.87 990.74 845.75 987.6 840.07 985.42C838.38 984.79 831.36 982.16 821.58 982.06C815.31 982 803.85 981.87 793.05 989.13C782.13 996.48 774.3 1009.71 774.3 1024.52C774.29 1026.85 774.54 1042.81 787.12 1055.03C799.68 1067.24 815.6 1067.06 821.58 1066.98C830.44 1066.88 837.62 1064.6 842.27 1062.66C843.32 1062.22 843.99 1061.2 843.99 1060.07V1038.84H818.22V1017.86H874.5L874.52 1017.87Z" fill="#0E19E3"/>
<path d="M818.24 1017.87H874.52V1073.26C869.02 1077.31 859.98 1082.93 847.68 1086.46C845.1 1087.19 834.3 1090.15 818.83 1089.5C803.92 1088.88 786.66 1088.16 771.07 1076.13C746.89 1057.46 746.46 1026.79 746.47 1024.53C746.47 1019.65 747.07 998.86 762.8 981.24C782.71 958.98 811.04 959.43 818.82 959.55C844.89 959.96 863.1 973.06 869.54 978.2C864.51 984.49 858.41 991.14 855.15 994.61C850.87 990.74 845.75 987.6 840.07 985.42C838.38 984.79 831.36 982.16 821.58 982.06C815.31 982 803.85 981.87 793.05 989.13C782.13 996.48 774.3 1009.71 774.3 1024.52C774.29 1026.85 774.54 1042.81 787.12 1055.03C799.68 1067.24 815.6 1067.06 821.58 1066.98C830.44 1066.88 837.62 1064.6 842.27 1062.66C843.32 1062.22 843.99 1061.2 843.99 1060.07V1038.84H818.22V1017.86L818.24 1017.87Z" fill="#AE00FF"/>
<path d="M943.37 994.46C913.25 994.46 888.74 1016.12 888.74 1042.74C888.74 1069.36 913.25 1091.02 943.37 1091.02C973.49 1091.02 998 1069.36 998 1042.74C998 1016.12 973.5 994.46 943.37 994.46ZM943.37 1069.86C928.42 1069.86 916.25 1057.7 916.25 1042.74C916.25 1027.78 928.41 1015.62 943.37 1015.62C958.33 1015.62 970.49 1027.78 970.49 1042.74C970.49 1057.7 958.33 1069.86 943.37 1069.86Z" fill="#AE00FF"/>
<path d="M1066.24 994.46C1036.11 994.46 1011.61 1016.12 1011.61 1042.74C1011.61 1069.36 1036.11 1091.02 1066.24 1091.02C1096.37 1091.02 1120.87 1069.36 1120.87 1042.74C1120.87 1016.12 1096.36 994.46 1066.24 994.46ZM1066.24 1069.86C1051.29 1069.86 1039.12 1057.7 1039.12 1042.74C1039.12 1027.78 1051.28 1015.62 1066.24 1015.62C1081.2 1015.62 1093.36 1027.78 1093.36 1042.74C1093.36 1057.7 1081.2 1069.86 1066.24 1069.86Z" fill="#AE00FF"/>
</g>
<defs>
<linearGradient id="paint0_linear_0_1" x1="330.71" y1="501.99" x2="931.47" y2="622.14" gradientUnits="userSpaceOnUse">
<stop stop-color="#3E0EE8"/>
<stop offset="0.33" stop-color="#350CEB"/>
<stop offset="1" stop-color="#430AEE"/>
</linearGradient>
<linearGradient id="paint1_linear_0_1" x1="428.83" y1="414.29" x2="831.88" y2="355.8" gradientUnits="userSpaceOnUse">
<stop stop-color="#2E0DE6"/>
<stop offset="0.33" stop-color="#2F0DF2"/>
<stop offset="1" stop-color="#130BEF"/>
</linearGradient>
<linearGradient id="paint2_linear_0_1" x1="396.83" y1="594.5" x2="820.23" y2="500.41" gradientUnits="userSpaceOnUse">
<stop stop-color="#300EEF"/>
<stop offset="0.33" stop-color="#2A08EB"/>
<stop offset="1" stop-color="#1A0CD7"/>
</linearGradient>
<linearGradient id="paint3_linear_0_1" x1="401.01" y1="465.03" x2="741.75" y2="409.09" gradientUnits="userSpaceOnUse">
<stop stop-color="#2600FB"/>
<stop offset="0.33" stop-color="#4308F5"/>
<stop offset="1" stop-color="#3110EA"/>
</linearGradient>
<linearGradient id="paint4_linear_0_1" x1="519.46" y1="743.69" x2="975.85" y2="852.06" gradientUnits="userSpaceOnUse">
<stop stop-color="#3806ED"/>
<stop offset="0.0001" stop-color="#260EF8"/>
<stop offset="1" stop-color="#3309EE"/>
</linearGradient>
<linearGradient id="paint5_linear_0_1" x1="657.15" y1="759.27" x2="-439.33" y2="841.06" gradientUnits="userSpaceOnUse">
<stop stop-color="white"/>
<stop offset="1"/>
</linearGradient>
<linearGradient id="paint6_linear_0_1" x1="879.37" y1="723.35" x2="4.56003" y2="1124" gradientUnits="userSpaceOnUse">
<stop stop-color="white"/>
<stop offset="1"/>
</linearGradient>
<clipPath id="clip0_0_1">
<rect width="912.86" height="863.02" fill="white" transform="translate(208 228)"/>
</clipPath>
</defs>
</svg>
